# xmcd
#
# Track frame offsets: 
#        182
#        4632
#        31912
#        45572
#        73430
#        98955
#        103587
#        153462
#        184910
#        210892
#        226055
#        256607
#        280915
#        291477
#
# Disc length: 4443 seconds
#
# Revision: 30
# Processed by: cddbd v1.5.2PL0 Copyright (c) Steve Scherf et al.
# Submitted via: ExactAudioCopy v1.3
#
DISCID=bc11590e
DTITLE=Paul Oakenfold - Perfecto Presents Another World - Disc 1
DYEAR=2000
DGENRE=Trance
TTITLE0=Dead Can Dance - The Host of the Seraphim
TTITLE1=Tone Depth - Into Being
TTITLE2=Chilled Eskimos - Take Me Away [Circulation Mix]
TTITLE3=Led Zeppelin - Babe I'm Gonna Leave You [The Quiver Mix]
TTITLE4=Timo Maas - Ubik [Dance Mix]
TTITLE5=LSG - Into Deep
TTITLE6=Max Graham - Airtight
TTITLE7=Planet Perfecto - Bullet In The Gun [Rabbit In The Moon Bloodh
TTITLE7=ound Gangbangers Mix]
TTITLE8=Brancaccio and Aisher - Darker
TTITLE9=Dead Can Dance - Sanvean
TTITLE10=Highland feat. Melinda Richards - No Way Out [Highland Mix]
TTITLE11=Max Graham - Bar None
TTITLE12=Vangelis - Tears in Rain
TTITLE13=Amoebaassassin - Piledriver [Grayed Out Summer Mix]
EXTD=YEAR: 2000
EXTT0=
EXTT1=
EXTT2=
EXTT3=
EXTT4=
EXTT5=
EXTT6=
EXTT7=
EXTT8=
EXTT9=
EXTT10=
EXTT11=
EXTT12=
EXTT13=
PLAYORDER=
